Coordinates
version=1
nRows=22
nColumns=33
inDegrees=yes

Units are S.I. units (second, meters, Newtons, ...)
Angles are in degrees.

endheader
time	ground_thorax_rot_x	ground_thorax_rot_y	ground_thorax_rot_z	ground_thorax_tx	ground_thorax_ty	ground_thorax_tz	clav_prot_r	clav_elev_r	scapula_abduction_r	scapula_elevation_r	scapula_upward_rot_r	scapula_winging_r	shoulder_elv_r	plane_of_elev_r	axial_rot_r	elbow_flexion_r	pro_sup_r	wrist_flex_r	wrist_dev_r	clav_prot_l	clav_elev_l	scapula_abduction_l	scapula_elevation_l	scapula_upward_rot_l	scapula_winging_l	shoulder_elv_l	plane_of_elev_l	axial_rot_l	elbow_flexion_l	pro_sup_l	wrist_flex_l	wrist_dev_l	
7.5900	-23.748668	-32.349754	46.023074	13.635265	819.246687	-45.104981	27.009822	-45.000000	40.807118	-45.000000	-45.000000	1698.630588	4753.280657	22.280433	-158.215810	2518.516683	168.427141	12.680560	15.659553	0.104019	31.615833	-31.186005	-45.000000	-45.000000	3323.877622	-3881.921242	28.922503	64.205438	1069.805859	46.208062	14.457452	-17.565564	
7.6000	-23.466389	-32.437805	46.508202	16.415730	817.792138	-44.883026	27.046903	-45.000000	40.812858	-45.000000	-45.000000	1698.721516	4753.193503	22.207800	-157.983855	2518.568216	168.915078	12.622709	15.587544	0.086816	31.553345	-31.049643	-45.000000	-45.000000	3323.716706	-3882.004484	28.881530	64.132196	1069.772330	46.267556	14.403739	-17.400249	
7.6100	-23.190814	-32.522154	46.986273	19.195705	816.308375	-44.656296	27.089172	-45.000000	40.811433	-45.000000	-45.000000	1698.807685	4753.105401	22.136833	-157.729524	2518.624833	169.378401	12.559687	15.516653	0.062684	31.490467	-30.910584	-45.000000	-45.000000	3323.558405	-3882.092806	28.840966	64.051247	1069.743737	46.319771	14.351309	-17.236421	
7.6200	-22.918244	-32.603794	47.460940	21.976323	814.799004	-44.426783	27.134643	-45.000000	40.806883	-45.000000	-45.000000	1698.889208	4753.018214	22.063484	-157.455370	2518.682150	169.816830	12.492097	15.446675	0.035227	31.425583	-30.766045	-45.000000	-45.000000	3323.397160	-3882.183023	28.798375	63.954572	1069.718247	46.368164	14.299355	-17.072788	
7.6300	-22.654374	-32.682676	47.926870	24.757750	813.267095	-44.196591	27.183007	-45.000000	40.793129	-45.000000	-45.000000	1698.968150	4752.929711	21.990548	-157.161213	2518.743808	170.233208	12.422683	15.377856	0.006401	31.361797	-30.617829	-45.000000	-45.000000	3323.239363	-3882.277995	28.759350	63.845765	1069.700674	46.413904	14.247565	-16.914873	
7.6400	-22.393899	-32.760651	48.389118	27.538906	811.714877	-43.967785	27.234024	-45.000000	40.776051	-45.000000	-45.000000	1699.043649	4752.841406	21.914902	-156.846108	2518.807292	170.631227	12.352238	15.309772	-0.023910	31.296481	-30.462890	-45.000000	-45.000000	3323.080218	-3882.375323	28.719942	63.718625	1069.687963	46.459888	14.195785	-16.762572	
7.6500	-22.141020	-32.836550	48.843882	30.317348	810.143716	-43.742269	27.287847	-45.000000	40.751208	-45.000000	-45.000000	1699.116367	4752.751964	21.838348	-156.511042	2518.876128	171.016250	12.283236	15.241966	-0.055350	31.232045	-30.303726	-45.000000	-45.000000	3322.923996	-3882.477986	28.683321	63.574823	1069.681976	46.506159	14.143808	-16.619389	
7.6600	-21.889003	-32.911706	49.297704	33.089421	808.554322	-43.521704	27.343632	-45.000000	40.726776	-45.000000	-45.000000	1699.184590	4752.663219	21.756348	-156.155021	2518.946579	171.392784	12.215963	15.173594	-0.088442	31.165261	-30.137377	-45.000000	-45.000000	3322.763284	-3882.582752	28.642907	63.405545	1069.677902	46.553603	14.091037	-16.482055	
7.6700	-21.642207	-32.984795	49.747205	35.850453	806.947191	-43.307485	27.401161	-45.000000	40.698992	-45.000000	-45.000000	1699.249048	4752.573859	21.669681	-155.778871	2519.021720	171.764742	12.152372	15.103880	-0.122850	31.098634	-29.966790	-45.000000	-45.000000	3322.601137	-3882.692229	28.600638	63.211213	1069.677662	46.599966	14.036837	-16.351667	
7.6800	-21.393258	-33.057806	50.199992	38.595072	805.323095	-43.100713	27.459178	-45.000000	40.677036	-45.000000	-45.000000	1699.308102	4752.486598	21.572816	-155.378346	2519.096841	172.133193	12.092229	15.031823	-0.159587	31.027893	-29.789795	-45.000000	-45.000000	3322.429843	-3882.803732	28.548384	62.983433	1069.675968	46.644495	13.981206	-16.223843	
7.6900	-21.144981	-33.129635	50.653557	41.317373	803.683624	-42.902206	27.517810	-45.000000	40.657509	-45.000000	-45.000000	1699.362533	4752.401721	21.465717	-154.953978	2519.172076	172.496311	12.037001	14.956228	-0.198445	30.955596	-29.608524	-45.000000	-45.000000	3322.250238	-3882.919174	28.486186	62.721054	1069.672698	46.684688	13.922899	-16.096867	
7.7000	-20.897860	-33.201696	51.106332	44.011170	802.031534	-42.712454	27.577095	-45.000000	40.639733	-45.000000	-45.000000	1699.412572	4752.318644	21.350611	-154.499319	2519.246445	172.850890	11.986439	14.877878	-0.238629	30.880971	-29.422108	-45.000000	-45.000000	3322.064893	-3883.036167	28.414205	62.429104	1069.667008	46.718462	13.862708	-15.970459	
7.7100	-20.657556	-33.272670	51.551408	46.669907	800.371012	-42.531603	27.637653	-45.000000	40.617730	-45.000000	-45.000000	1699.459385	4752.236276	21.231829	-154.018152	2519.322182	173.192785	11.939917	14.798293	-0.279230	30.806126	-29.232493	-45.000000	-45.000000	3321.879896	-3883.156344	28.338121	62.113766	1069.660528	46.744085	13.802065	-15.847515	
7.7200	-20.423555	-33.342199	51.988696	49.286755	798.707610	-42.359414	27.699431	-45.000000	40.592746	-45.000000	-45.000000	1699.502170	4752.155713	21.109306	-153.507530	2519.397677	173.518105	11.895820	14.718253	-0.319613	30.729616	-29.038841	-45.000000	-45.000000	3321.694999	-3883.277049	28.258758	61.779640	1069.652082	46.761857	13.741612	-15.727924	
7.7300	-20.198614	-33.409066	52.413815	51.854567	797.048046	-42.195350	27.762541	-45.000000	40.562170	-45.000000	-45.000000	1699.541388	4752.076312	20.985977	-152.977561	2519.473655	173.823353	11.852564	14.638619	-0.360172	30.654139	-28.842204	-45.000000	-45.000000	3321.511728	-3883.399422	28.179251	61.427414	1069.643190	46.772642	13.681316	-15.612889	
7.7400	-19.983737	-33.472535	52.825472	54.366289	795.399684	-42.038717	27.826489	-45.000000	40.525837	-45.000000	-45.000000	1699.576625	4751.998598	20.862773	-152.428396	2519.548821	174.107544	11.809020	14.559801	-0.400084	30.579229	-28.643268	-45.000000	-45.000000	3321.330862	-3883.521210	28.100974	61.062512	1069.635134	46.778231	13.621285	-15.503492	
7.7500	-19.777320	-33.532762	53.224062	56.815325	793.769953	-41.888959	27.890053	-45.000000	40.486422	-45.000000	-45.000000	1699.608111	4751.923873	20.739557	-151.867914	2519.621653	174.369561	11.763806	14.481572	-0.440523	30.505022	-28.442969	-45.000000	-45.000000	3321.149788	-3883.643289	28.022692	60.681567	1069.627974	46.781615	13.561405	-15.399836	
7.7600	-19.577615	-33.587233	53.613277	59.196283	792.165644	-41.745922	27.952320	-45.000000	40.445528	-45.000000	-45.000000	1699.634949	4751.856638	20.611838	-151.292601	2519.687389	174.607993	11.717922	14.401035	-0.481266	30.429722	-28.242609	-45.000000	-45.000000	3320.962535	-3883.763033	27.941176	60.284466	1069.620830	46.785847	13.499425	-15.299142	
7.7700	-19.385150	-33.637851	53.991574	61.505432	790.592362	-41.610056	28.012750	-45.000000	40.402453	-45.000000	-45.000000	1699.657189	4751.794803	20.483552	-150.705356	2519.747847	174.820397	11.671238	14.318872	-0.523243	30.356479	-28.041761	-45.000000	-45.000000	3320.772364	-3883.881569	27.858764	59.871759	1069.615344	46.792589	13.435522	-15.202744	
7.7800	-19.201759	-33.685313	54.356598	63.740654	789.054367	-41.482404	28.071854	-45.000000	40.357217	-45.000000	-45.000000	1699.676345	4751.736334	20.354994	-150.103402	2519.803623	175.004751	11.624792	14.236492	-0.564331	30.285309	-27.842896	-45.000000	-45.000000	3320.586026	-3883.998253	27.777822	59.452118	1069.612347	46.802538	13.371841	-15.113540	
7.7900	-19.027878	-33.731850	54.705751	65.900676	787.554819	-41.364461	28.128862	-45.000000	40.311302	-45.000000	-45.000000	1699.694083	4751.678134	20.229146	-149.491493	2519.858283	175.158651	11.578598	14.155901	-0.604167	30.217370	-27.646967	-45.000000	-45.000000	3320.409290	-3884.114549	27.700397	59.028315	1069.612571	46.815817	13.310509	-15.034242	
7.8000	-18.863006	-33.775514	55.039981	67.984076	786.096279	-41.257852	28.183941	-45.000000	40.265177	-45.000000	-45.000000	1699.712129	4751.622916	20.102547	-148.870065	2519.911183	175.280515	11.534974	14.074932	-0.641965	30.150862	-27.455724	-45.000000	-45.000000	3320.239288	-3884.228653	27.623409	58.601346	1069.615611	46.832115	13.250396	-14.963352	
